# xmcd
#
# Track frame offsets: 
#        150
#        26814
#        45983
#        62839
#        83625
#        117358
#        145895
#        167430
#        188869
#        225049
#        247721
#        266398
#        283328
#
# Disc length: 4135 seconds
#
# Revision: 2
# Processed by: cddbd v1.5.2PL0 Copyright (c) Steve Scherf et al.
# Submitted via: ExactAudioCopyFreeDBPlugin 1.0
#
DISCID=a210250d
DTITLE=Otis Taylor - Pentatonic Wars and Love Songs
DYEAR=2009
DGENRE=Blues
TTITLE0=Looking for Some Heat
TTITLE1=Sunday Morning
TTITLE2=Silver Dollar on My Head
TTITLE3=Lost My Guitar
TTITLE4=I'm Not Mysterious
TTITLE5=Young Girl Down the Street
TTITLE6=Country Boy, Girl
TTITLE7=Talking About It Blues
TTITLE8=Walk on Water
TTITLE9=Mama's Best Friend
TTITLE10=Maybe Yeah
TTITLE11=Dagger by My Side
TTITLE12=If You Hope
EXTD=YEAR: 2009
EXTT0=
EXTT1=
EXTT2=
EXTT3=
EXTT4=
EXTT5=
EXTT6=
EXTT7=
EXTT8=
EXTT9=
EXTT10=
EXTT11=
EXTT12=
PLAYORDER=
